<?xml version="1.0" standalone="no"?>
<!DOCTYPE svg PUBLIC "-//W3C//DTD SVG 20010904//EN"
 "http://www.w3.org/TR/2001/REC-SVG-20010904/DTD/svg10.dtd">
<svg version="1.0" xmlns="http://www.w3.org/2000/svg"
 width="294.000000pt" height="237.000000pt" viewBox="0 0 294.000000 237.000000"
 preserveAspectRatio="xMidYMid meet">

<g transform="translate(0.000000,237.000000) scale(0.100000,-0.100000)"
fill="#000000" stroke="none">
<path d="M725 2308 c-118 -55 -136 -68 -156 -114 -11 -24 -29 -48 -39 -54 -11
-6 -20 -17 -20 -25 0 -7 -10 -26 -23 -42 -32 -40 -62 -118 -81 -214 -4 -17
-26 -42 -63 -70 -92 -69 -97 -75 -96 -118 2 -49 30 -119 59 -152 21 -21 24
-35 24 -97 0 -72 -2 -81 -34 -137 -9 -16 -24 -46 -33 -65 -8 -19 -28 -60 -44
-90 -15 -31 -32 -84 -38 -119 -6 -35 -14 -68 -20 -74 -5 -7 -19 -48 -32 -92
-26 -93 -36 -264 -20 -350 13 -71 65 -156 128 -208 50 -41 175 -107 204 -107
9 0 32 -6 50 -14 60 -24 129 -28 234 -11 55 9 134 20 175 24 41 5 93 13 115
19 22 6 76 16 120 22 44 6 103 18 130 26 69 21 291 35 357 23 139 -25 271 -33
351 -21 45 7 83 16 86 21 3 5 24 11 46 13 22 3 77 11 121 18 69 11 108 10 251
-4 94 -9 221 -16 283 -16 l113 0 -7 32 c-3 18 -12 36 -19 39 -6 4 -22 16 -33
26 -12 10 -38 31 -59 47 -20 16 -57 57 -82 90 -41 55 -187 206 -199 206 -2 0
-27 15 -54 33 -104 68 -138 87 -161 87 -13 0 -41 12 -62 27 -33 23 -55 29
-123 34 -62 5 -89 12 -110 28 -35 28 -82 40 -185 47 -94 7 -257 -9 -321 -32
-58 -20 -147 -17 -222 7 -63 21 -65 23 -95 84 -44 89 -42 139 9 249 21 47 44
86 50 86 5 0 10 10 10 22 0 12 7 29 16 39 31 34 55 175 61 356 l5 171 -37 94
c-21 51 -50 111 -64 132 -22 34 -92 84 -141 102 -8 3 -30 12 -49 20 -19 8 -77
17 -130 20 -85 4 -102 2 -146 -18z m225 -28 c38 -5 94 -24 135 -44 66 -33 74
-40 103 -97 18 -34 32 -68 32 -75 0 -8 5 -14 10 -14 6 0 10 -8 10 -17 0 -10 7
-36 15 -58 8 -22 14 -66 15 -97 0 -86 -29 -288 -44 -303 -7 -8 -24 -43 -37
-79 -12 -36 -26 -66 -31 -66 -4 0 -8 -6 -8 -13 0 -8 -13 -34 -30 -58 -16 -24
-30 -52 -30 -61 0 -10 -4 -18 -9 -18 -5 0 -19 -26 -31 -57 -13 -32 -27 -63
-32 -69 -12 -16 -29 -213 -22 -248 5 -21 8 -25 15 -15 5 8 9 26 9 41 0 78 51
105 96 51 31 -37 76 -63 108 -63 12 0 46 -9 76 -21 59 -22 120 -20 150 5 30
25 184 49 272 42 160 -13 186 -17 204 -37 10 -11 31 -19 48 -19 17 -1 42 -7
56 -15 14 -8 39 -14 56 -15 17 0 52 -11 77 -24 25 -14 63 -28 84 -32 21 -4 50
-15 65 -25 14 -11 33 -19 41 -19 41 0 222 -162 288 -257 29 -42 80 -97 120
-130 45 -37 65 -59 55 -61 -8 -2 -25 6 -38 17 -26 25 -38 27 -38 5 0 -18 -23
-18 -315 6 -162 14 -271 2 -412 -45 -37 -12 -68 -15 -110 -11 -32 4 -101 9
-153 12 -69 4 -102 11 -119 23 -23 18 -23 18 35 24 143 16 234 31 222 38 -65
35 -290 6 -603 -78 -124 -34 -164 -41 -285 -53 -58 -6 -125 -17 -149 -25 -24
-8 -73 -18 -108 -21 -35 -4 -66 -11 -69 -15 -12 -19 -143 -9 -221 17 -101 34
-163 62 -163 74 0 6 -6 10 -13 10 -7 0 -19 9 -27 20 -8 11 -20 20 -27 20 -7 0
-13 4 -13 8 0 5 -15 31 -32 58 -33 48 -33 50 -36 189 -4 140 -3 143 38 291 69
249 72 258 96 282 13 13 37 49 53 80 23 46 30 76 35 157 7 98 7 102 -17 125
-35 36 -57 84 -57 125 0 31 6 39 50 71 27 20 50 39 50 43 0 4 11 14 25 21 23
12 50 64 40 80 -9 14 23 100 57 152 18 29 40 68 49 88 25 54 94 126 145 151
82 39 133 45 244 29z"/>
<path d="M698 2123 c-10 -2 -18 -9 -18 -14 0 -5 -6 -9 -13 -9 -12 0 -44 -28
-77 -67 -19 -22 -70 -142 -70 -163 0 -26 22 -40 64 -40 65 -1 119 -17 137 -42
23 -30 36 -17 48 47 6 28 19 69 30 92 34 69 27 118 -27 176 -25 26 -38 30 -74
20z m57 -29 c42 -27 43 -100 3 -204 -27 -71 -31 -74 -66 -56 -18 9 -55 16 -87
16 -70 0 -80 15 -46 70 6 8 12 28 16 43 3 15 21 43 40 62 19 18 35 38 35 44 0
6 8 11 18 11 9 0 26 7 36 15 24 18 22 18 51 -1z"/>
<path d="M926 2008 c-45 -62 -146 -220 -146 -228 0 -6 62 -22 145 -39 22 -4
55 -15 73 -25 19 -10 37 -15 40 -11 7 7 28 100 38 171 7 45 -18 105 -55 137
-30 24 -75 22 -95 -5z m87 -26 c35 -39 39 -74 18 -157 -12 -43 -22 -80 -24
-82 -2 -2 -17 3 -33 12 -16 8 -42 15 -59 15 -16 0 -40 9 -53 20 -22 18 -22 21
-8 54 8 20 19 36 24 36 4 0 19 19 32 41 43 78 73 95 103 61z"/>
<path d="M800 1510 c0 -6 -8 -13 -17 -17 -10 -3 -38 -15 -62 -26 -46 -20 -130
-20 -176 -2 -17 8 -18 7 -7 -7 16 -19 95 -48 131 -48 30 0 92 21 112 36 8 6
27 16 43 21 39 12 43 27 11 41 -32 15 -35 15 -35 2z"/>
</g>
</svg>
